{"title":"Dirty Pretty Things 2002 DVDRip Xvid BigPerm LKLRG","uid":6398043,"size":1183814337,"categoryP":"video","categoryS":"movies","magnet":"?xt=urn:btih:5d613da435d624da5f483626b2e3c16683ac75ca&amp;dn=Dirty+Pretty+Things+2002+DVDRip+Xvid+BigPerm+LKLRG&amp;tr=udp%3A%2F%2Ftracker.openbittorrent.com%3A80&amp;tr=udp%3A%2F%2Fopen.demonii.com%3A1337&amp;tr=udp%3A%2F%2Ftracker.coppersurfer.tk%3A6969&amp;tr=udp%3A%2F%2Fexodus.desync.com%3A6969","seeders":0,"leechers":1,"uploader":".BONE.","files":80,"time":1305578701,"description":"\nPLOT\n\nAn illegal Nigerian immigrant discovers the unpalatable side of London life.\n &lt;a href=&quot;\nhttp://www.imdb.com/title/tt0301199/&quot; rel=&quot;nofollow&quot; target=&quot;_NEW&quot;&gt;\nhttp://www.imdb.com/title/tt0301199/&lt;/a&gt;\n\n\nEncoded By .......: BigPerm1828\nRuntime ..........: 1h 36mn\nFile Size ........: 1.11 GB\nResolution .......: 704x396\nIMDb URL .........: http://www.imdb.com/title/tt0301199/\nLanguage .........: English\nVideo\nID : 0\nFormat : MPEG-4 Visual\nFormat profile : Advanced Simple@L5\nFormat settings, BVOP : Yes\nFormat settings, QPel : No\nFormat settings, GMC : No warppoints\nFormat settings, Matrix : Default (H.263)\nCodec ID : XVID\nCodec ID/Hint : XviD\nDuration : 1h 36mn\nBit rate : 56.3 Kbps\nWidth : 704 pixels\nHeight : 396 pixels\nDisplay aspect ratio : 16:9\nFrame rate : 29.970 fps\nColor space : YUV\nChroma subsampling : 4:2:0\nBit depth : 8 bits\nScan type : Progressive\nCompression mode : Lossy\nBits/(Pixel*Frame) : 0.007\nStream size : 38.9 MiB (3%)\nWriting library : XviD 1.2.1 (UTC 2008-12-04)\n\nAudio\nID : 1\nFormat : AC-3\nFormat/Info : Audio Coding 3\nCodec ID : 2000\nDuration : 1h 36mn\nBit rate mode : Constant\nBit rate : 448 Kbps\nChannel(s) : 6 channels\nSampling rate : 48.0 KHz\nBit depth : 16 bits\nCompression mode : Lossy\nStream size : 310 MiB (27%)\nAlignment : Aligned on interleaves","torrent":{"xt":"urn:btih:5d613da435d624da5f483626b2e3c16683ac75ca","amp;dn":"Dirty+Pretty+Things+2002+DVDRip+Xvid+BigPerm+LKLRG","amp;tr":["udp%3A%2F%2Ftracker.openbittorrent.com%3A80","udp%3A%2F%2Fopen.demonii.com%3A1337","udp%3A%2F%2Ftracker.coppersurfer.tk%3A6969","udp%3A%2F%2Fexodus.desync.com%3A6969"],"infoHash":"5d613da435d624da5f483626b2e3c16683ac75ca","infoHashBuffer":{"type":"Buffer","data":[93,97,61,164,53,214,36,218,95,72,54,38,178,227,193,102,131,172,117,202]},"announce":[],"urlList":[]}}